<svg xmlns="http://www.w3.org/2000/svg" viewBox="0 0 24 24" fill="#111827">
    <path d="M12 .5a11.5 11.5 0 00-3.6 22.4c.6.1.8-.2.8-.6v-2c-3.200.7-3.900-1.400-3.900-1.400-.5-1.300-1.300-1.700-1.300-1.700-1-.7.100-.7.100-.7 1.200.1 1.800 1.200 1.800 1.200 1 1.800 2.700 1.300 3.300 1 .1-.7.400-1.300.7-1.600-2.600-.3-5.300-1.300-5.300-5.700 0-1.300.5-2.300 1.200-3.100-.1-.3-.5-1.500.1-3.100 0 0 1-.3 3.200 1.200a11 11 0 015.800 0c2.200-1.500 3.200-1.200 3.200-1.200.6 1.600.2 2.800.1 3.100.8.800 1.200 1.800 1.200 3.100 0 4.400-2.700 5.400-5.300 5.700.4.400.8 1.100.8 2.200v3.200c0 .4.2.7.8.6A11.500 11.500 0 0012 .5z" />
</svg>
